<svg xmlns="http://www.w3.org/2000/svg" xmlns:xlink="http://www.w3.org/1999/xlink" id="Layer_1" width="70" height="70" x="0" y="0" enable-background="new 0 0 70 70" version="1.1" viewBox="0 0 70 70" xml:space="preserve"><g><g><linearGradient id="SVGID_1_" x1=".79" x2="33.317" y1="40.089" y2="40.089" gradientUnits="userSpaceOnUse"><stop offset=".258" stop-color="#F97A12"/><stop offset=".459" stop-color="#B07B58"/><stop offset=".724" stop-color="#577BAE"/><stop offset=".91" stop-color="#1E7CE5"/><stop offset="1" stop-color="#087CFA"/></linearGradient><polygon fill="url(#SVGID_1_)" points="17.7 54.6 .8 41.2 9.2 25.6 33.3 35"/><linearGradient id="SVGID_2_" x1="25.767" x2="79.424" y1="24.88" y2="54.57" gradientUnits="userSpaceOnUse"><stop offset="0" stop-color="#F97A12"/><stop offset=".072" stop-color="#CB7A3E"/><stop offset=".154" stop-color="#9E7B6A"/><stop offset=".242" stop-color="#757B91"/><stop offset=".334" stop-color="#537BB1"/><stop offset=".432" stop-color="#387CCC"/><stop offset=".538" stop-color="#237CE0"/><stop offset=".655" stop-color="#147CEF"/><stop offset=".792" stop-color="#0B7CF7"/><stop offset="1" stop-color="#087CFA"/></linearGradient><polygon fill="url(#SVGID_2_)" points="70 18.7 68.7 59.2 41.8 70 25.6 59.6 49.3 35 38.9 12.3 48.2 1.1"/><linearGradient id="SVGID_3_" x1="63.228" x2="48.29" y1="42.915" y2="-1.719" gradientUnits="userSpaceOnUse"><stop offset="0" stop-color="#FE315D"/><stop offset=".078" stop-color="#CB417E"/><stop offset=".16" stop-color="#9E4E9B"/><stop offset=".247" stop-color="#755BB4"/><stop offset=".339" stop-color="#5365CA"/><stop offset=".436" stop-color="#386DDB"/><stop offset=".541" stop-color="#2374E9"/><stop offset=".658" stop-color="#1478F3"/><stop offset=".794" stop-color="#0B7BF8"/><stop offset="1" stop-color="#087CFA"/></linearGradient><polygon fill="url(#SVGID_3_)" points="70 18.7 48.7 43.9 38.9 12.3 48.2 1.1"/><linearGradient id="SVGID_4_" x1="10.72" x2="55.524" y1="16.473" y2="90.58" gradientUnits="userSpaceOnUse"><stop offset="0" stop-color="#FE315D"/><stop offset=".04" stop-color="#F63462"/><stop offset=".104" stop-color="#DF3A71"/><stop offset=".167" stop-color="#C24383"/><stop offset=".291" stop-color="#AD4A91"/><stop offset=".55" stop-color="#755BB4"/><stop offset=".917" stop-color="#1D76ED"/><stop offset="1" stop-color="#087CFA"/></linearGradient><polygon fill="url(#SVGID_4_)" points="33.7 58.1 5.6 68.3 10.1 52.5 16 33.1 0 27.7 10.1 0 32.1 2.7 53.7 27.4"/></g><g><rect width="43.2" height="43.2" x="13.7" y="13.5" fill="#000"/><rect width="16.2" height="2.7" x="17.7" y="48.6" fill="#FFF"/><polygon fill="#FFF" points="29.4 22.4 29.4 19.1 20.4 19.1 20.4 22.4 23 22.4 23 33.7 20.4 33.7 20.4 37 29.4 37 29.4 33.7 26.9 33.7 26.9 22.4"/><path fill="#FFF" d="M38,37.3c-1.4,0-2.6-0.3-3.5-0.8c-0.9-0.5-1.7-1.2-2.3-1.9l2.5-2.8c0.5,0.6,1,1,1.5,1.3 c0.5,0.3,1.1,0.5,1.7,0.5c0.7,0,1.3-0.2,1.8-0.7c0.4-0.5,0.6-1.2,0.6-2.3V19.1h4v11.7c0,1.1-0.1,2-0.4,2.8c-0.3,0.8-0.7,1.4-1.3,2 c-0.5,0.5-1.2,1-2,1.2C39.8,37.1,39,37.3,38,37.3"/></g></g></svg>